<svg xmlns="http://www.w3.org/2000/svg" viewBox="0 0 128 128" >
    <style>
        path {fill: #161616;}
        circle {fill: #ffc500;}
    </style>

    <circle cx="64" cy="64" r="64"/>
    <path d="M11.26,73.66V40.06h19v33.6ZM15,54.88H26.56V43.54H15Zm0,15.18H26.56V58.3H15Zm8,20.16a10.18,10.18,0,0,0-.93-1.56,9.47,9.47,0,0,0-1.35-1.56,27.77,27.77,0,0,0,9.54-4.86,18.19,18.19,0,0,0,5.52-7.95,34.84,34.84,0,0,0,1.8-12V38.2H59.38V85.06A4.87,4.87,0,0,1,58,88.66,5.71,5.71,0,0,1,53.8,90h-5q-.12-.84-.39-2a8.34,8.34,0,0,0-.57-1.8h5.4a2.69,2.69,0,0,0,1.8-.48,2.08,2.08,0,0,0,.54-1.62V68.38H41a28.37,28.37,0,0,1-3,10.11,21.28,21.28,0,0,1-6,7A34.6,34.6,0,0,1,23,90.22ZM41.26,65H55.6v-10H41.32v8.7Q41.32,64.3,41.26,65Zm.06-13.44H55.6V41.86H41.32Z"/><path d="M63.76,88.48V85.06h24.9V78.88H72.16v-3.3h16.5V69.82H74q-1.68,2-3.48,3.72a41.72,41.72,0,0,1-3.6,3.12,9.32,9.32,0,0,0-1.2-1.23,12,12,0,0,0-1.5-1.17,39.82,39.82,0,0,0,4.62-4,47.94,47.94,0,0,0,4.41-5.07A28.69,28.69,0,0,0,76.36,60L79.6,61.6a20.75,20.75,0,0,1-1.41,2.49q-.81,1.23-1.65,2.43H88.66V61H92.5v5.52h20v3.3h-20v5.76h16.86v3.3H92.5v6.18h24.24v3.42Zm8.46-29.1V37.78h36.42v21.6ZM76.06,46.9h28.8V41.14H76.06Zm0,9.12h28.8V50.14H76.06Z"/>
</svg>