<svg xmlns="http://www.w3.org/2000/svg" viewBox="0 0 128 128">
    <style>
        .ink {fill: #161616;}
        .daisy {fill: #ffc500;}
    </style>

    <circle class="daisy" cx="64" cy="64" r="64"/>
    
    <path class="ink" d="M22,73c-2.15,0-4.26-.4-6.26-1.19-2.17-.86-4.11-2.13-5.76-3.79-1.65-1.65-2.93-3.59-3.79-5.76-.79-2-1.19-4.11-1.19-6.26s.4-4.26,1.19-6.26c.86-2.17,2.13-4.11,3.79-5.76,1.65-1.65,3.59-2.93,5.76-3.79,2-.79,4.11-1.19,6.26-1.19s4.26,.4,6.26,1.19c2.17,.86,4.11,2.13,5.76,3.79,1.65,1.65,2.93,3.59,3.79,5.76,.79,2,1.19,4.11,1.19,6.26s-.4,4.26-1.19,6.26c-.86,2.17-2.13,4.11-3.79,5.76s-3.59,2.93-5.76,3.79c-2,.79-4.11,1.19-6.26,1.19Zm0-30c-1.65,0-3.25,.31-4.79,.91-1.66,.66-3.14,1.63-4.41,2.9s-2.24,2.75-2.89,4.41c-.61,1.53-.91,3.14-.91,4.79s.31,3.25,.91,4.79c.66,1.66,1.63,3.14,2.9,4.41s2.75,2.24,4.41,2.89c1.53,.61,3.14,.91,4.79,.91s3.25-.31,4.79-.91c1.66-.66,3.14-1.63,4.41-2.9s2.24-2.75,2.89-4.41c.61-1.53,.91-3.14,.91-4.79s-.31-3.25-.91-4.79c-.66-1.66-1.63-3.14-2.9-4.41s-2.75-2.24-4.41-2.89c-1.53-.61-3.14-.91-4.79-.91Z"/>
    <circle class="ink" cx="22" cy="56" r="3"/>

    <path class="ink" d="M20.66,95.71c-.7,0-1.36-.38-1.72-.98-.27-.46-.35-1-.22-1.52,.13-.52,.46-.95,.92-1.23,8.81-5.23,15.77-13.35,19.6-22.86,3.83-9.51,4.43-20.18,1.7-30.06-.21-.74,.04-1.55,.63-2.05,.36-.31,.83-.48,1.3-.48,.28,0,.56,.06,.82,.18,10.41,4.7,17.56,14.25,19.12,25.57s-2.73,22.45-11.48,29.79c-.36,.3-.82,.47-1.29,.47-.59,0-1.15-.26-1.53-.71-.34-.41-.51-.93-.46-1.46,.05-.53,.3-1.01,.71-1.36,7.37-6.18,11.19-15.59,10.21-25.16-.9-8.83-5.77-16.7-13.17-21.45,1.82,9.89,.7,19.96-3.29,29.26-4.28,10-11.49,18.22-20.84,23.77-.31,.18-.66,.28-1.02,.28h0Z"/>
    <circle class="ink" cx="52.08" cy="61.05" r="3"/>
    <circle class="ink" cx="50.22" cy="72.65" r="3"/>

    <path class="ink" d="M66,95c-1.1,0-2-.9-2-2s.9-2,2-2h22v-6.04c-3.96-.15-7.89-.74-11.72-1.77-1.06-.29-1.7-1.38-1.41-2.45,.24-.87,1.03-1.48,1.93-1.48,.17,0,.35,.02,.52,.07,3.49,.93,7.07,1.48,10.68,1.63v-6.02c-6.46-.37-12.66-2.51-17.98-6.21-.91-.63-1.13-1.88-.5-2.78,.37-.54,.99-.86,1.64-.86,.41,0,.8,.12,1.14,.36,4.65,3.24,10.06,5.12,15.7,5.48v-10.09c-1.27-.2-2.5-.58-3.67-1.15-1.56-.76-2.93-1.8-4.08-3.1-1.15-1.3-2.01-2.79-2.57-4.43-.51-1.52-.74-3.1-.67-4.71,.07-1.6,.42-3.16,1.06-4.63,.69-1.59,1.68-3.01,2.93-4.21,1.25-1.2,2.71-2.13,4.33-2.75,1.5-.58,3.07-.87,4.67-.87s3.18,.29,4.67,.87c1.62,.62,3.07,1.55,4.32,2.75s2.24,2.62,2.93,4.21c.64,1.47,1,3.03,1.06,4.63,.07,1.6-.16,3.19-.67,4.71-.55,1.64-1.42,3.14-2.57,4.44-1.15,1.3-2.52,2.34-4.08,3.1-1.17,.56-2.4,.95-3.67,1.15v10.09c5.64-.36,11.05-2.25,15.7-5.49,.34-.23,.73-.36,1.14-.36,.66,0,1.27,.32,1.64,.86,.63,.9,.41,2.15-.5,2.78-5.33,3.7-11.52,5.84-17.98,6.21v6.02c3.61-.15,7.2-.69,10.68-1.63,.17-.05,.34-.07,.52-.07,.9,0,1.7,.61,1.93,1.48,.28,1.07-.35,2.17-1.41,2.45-3.83,1.02-7.76,1.62-11.72,1.77v6.04h22c1.1,0,2,.9,2,2s-.9,2-2,2h-48Zm24-56c-1.14,0-2.25,.21-3.31,.63-1.15,.46-2.18,1.13-3.05,2-.87,.87-1.55,1.9-2,3.05-.42,1.06-.63,2.17-.63,3.31s.21,2.25,.63,3.31c.46,1.15,1.13,2.18,2,3.05,.87,.87,1.9,1.55,3.05,2,1.06,.42,2.17,.63,3.31,.63s2.25-.21,3.31-.63c1.15-.46,2.18-1.13,3.05-2,.87-.87,1.55-1.9,2-3.05,.42-1.06,.63-2.17,.63-3.31s-.21-2.25-.63-3.31c-.46-1.15-1.13-2.18-2-3.05-.87-.87-1.9-1.55-3.05-2-1.06-.42-2.17-.63-3.31-.63Z"/>
    <circle class="ink" cx="90" cy="48" r="3"/>
</svg>