<svg xmlns="http://www.w3.org/2000/svg" viewBox="0 0 128 128" >
    <style>
        path {fill: #161616;}
        circle {fill: #ffc500;}
    </style>

    <circle cx="64" cy="64" r="64"/>
    <path d="M20.53,73.57a16.79,16.79,0,0,1-5.73-.78,5.08,5.08,0,0,1-2.94-2.61,11.86,11.86,0,0,1-.87-5V48.37a11.86,11.86,0,0,1,.87-5,5.08,5.08,0,0,1,2.94-2.61A16.79,16.79,0,0,1,20.53,40a16.52,16.52,0,0,1,5.7.78,5.08,5.08,0,0,1,2.91,2.61,11.86,11.86,0,0,1,.87,5v16.8a11.86,11.86,0,0,1-.87,5,5.08,5.08,0,0,1-2.91,2.61A16.52,16.52,0,0,1,20.53,73.57ZM14.77,54.79H26.29V48.43a8,8,0,0,0-.45-3,2.64,2.64,0,0,0-1.68-1.47,11.89,11.89,0,0,0-3.63-.42,11.94,11.94,0,0,0-3.6.42,2.65,2.65,0,0,0-1.71,1.47,8,8,0,0,0-.45,3ZM20.53,70a11.89,11.89,0,0,0,3.63-.42,2.63,2.63,0,0,0,1.68-1.5,8,8,0,0,0,.45-3V58.27H14.77v6.78a8,8,0,0,0,.45,3,2.64,2.64,0,0,0,1.71,1.5A11.94,11.94,0,0,0,20.53,70Zm29,20.28a2,2,0,0,1-1.41-.51,2,2,0,0,1-.63-1.41A2,2,0,0,1,48,87a1.92,1.92,0,0,1,1.35-.63q3.6-.12,4.77-1T55.33,82V68.29H40.75q-1,8.34-5.28,13.47a29.16,29.16,0,0,1-11.4,8.13,2.47,2.47,0,0,1-1.68.12,1.86,1.86,0,0,1-.12-3.54,22.62,22.62,0,0,0,11.31-8.4q3.75-5.58,3.75-15.36V46.39q0-4.62,2-6.42t7-1.8h3.78q5,0,7,1.8t2,6.42V82.63q0,4-2,5.82T49.57,90.25ZM41,64.87H55.33v-10H41.05v8.88A9.77,9.77,0,0,1,41,64.87Zm.06-13.38H55.33V46.57q0-2.82-1.11-3.81t-4.29-1H46.51q-3.18,0-4.32,1t-1.14,3.81Z"/><path d="M64.69,88.63a1.74,1.74,0,0,1,0-3.48h23.7V79H73a1.58,1.58,0,0,1-1.2-.51,1.73,1.73,0,0,1-.48-1.23,1.66,1.66,0,0,1,.48-1.17,1.58,1.58,0,0,1,1.2-.51H88.39V70H73.45q-1.38,1.68-2.88,3.18t-2.88,2.76a2.46,2.46,0,0,1-1.38.54A1.78,1.78,0,0,1,64.93,76a1.81,1.81,0,0,1-.51-1.26A1.46,1.46,0,0,1,65,73.45a51.26,51.26,0,0,0,3.75-3.63q2-2.13,3.87-4.5A44.68,44.68,0,0,0,75.67,61a2,2,0,0,1,1.14-.87,1.75,1.75,0,0,1,1.38.15,1.61,1.61,0,0,1,.9,1,1.65,1.65,0,0,1-.24,1.35q-.6,1-1.26,1.92t-1.44,2H88.39V60.67a1.79,1.79,0,0,1,.36-1.2H82.87a18.6,18.6,0,0,1-6.54-.93,5.93,5.93,0,0,1-3.39-3,13.39,13.39,0,0,1-1-5.64V47.29a13.18,13.18,0,0,1,1-5.61,6,6,0,0,1,3.39-3,18.6,18.6,0,0,1,6.54-.93H97.51a18.34,18.34,0,0,1,6.51.93,6.07,6.07,0,0,1,3.39,3,12.84,12.84,0,0,1,1,5.61v2.58a13,13,0,0,1-1,5.64,6.05,6.05,0,0,1-3.39,3,18.34,18.34,0,0,1-6.51.93H91.87a1.79,1.79,0,0,1,.36,1.2v5.88h18.9a1.61,1.61,0,0,1,1.17.51,1.68,1.68,0,0,1,.51,1.23A1.75,1.75,0,0,1,111.13,70H92.23v5.64h15.66a1.68,1.68,0,0,1,1.23.51,1.61,1.61,0,0,1,.51,1.17A1.74,1.74,0,0,1,107.89,79H92.23v6.12h23a1.74,1.74,0,0,1,0,3.48ZM75.79,47h28.8q-.06-3.48-1.53-4.68t-5.55-1.2H82.87q-4.08,0-5.55,1.2T75.79,47Zm7.08,9.12H97.51q4.08,0,5.55-1.23t1.53-4.65H75.79q.06,3.42,1.53,4.65T82.87,56.11Z"/>
</svg>