<svg xmlns="http://www.w3.org/2000/svg" viewBox="0 0 128 128">

    <path d="M36.88,50.11c-.8-2.03-2.02-3.88-3.56-5.42-1.55-1.55-3.39-2.76-5.42-3.56-1.88-.74-3.87-1.12-5.89-1.12s-4.01,.38-5.89,1.12c-2.03,.8-3.88,2.02-5.42,3.56-1.55,1.55-2.76,3.39-3.56,5.42-.74,1.88-1.12,3.87-1.12,5.89s.38,4.01,1.12,5.89c.8,2.03,2.02,3.88,3.56,5.42,1.55,1.55,3.39,2.76,5.42,3.56,1.88,.74,3.87,1.12,5.89,1.12s4.01-.38,5.89-1.12c2.03-.8,3.88-2.02,5.42-3.56,1.55-1.55,2.76-3.39,3.56-5.42,.74-1.88,1.12-3.87,1.12-5.89s-.38-4.01-1.12-5.89Zm-1.86,11.04c-.7,1.78-1.77,3.39-3.12,4.75-1.35,1.35-2.97,2.41-4.75,3.12-1.64,.65-3.39,.98-5.15,.98s-3.51-.33-5.15-.98c-1.78-.7-3.39-1.76-4.75-3.12-1.35-1.35-2.41-2.97-3.12-4.75-.65-1.64-.98-3.39-.98-5.15s.33-3.51,.98-5.15c.7-1.78,1.77-3.39,3.12-4.75,1.35-1.35,2.97-2.41,4.75-3.12,1.64-.65,3.39-.98,5.15-.98s3.51,.33,5.15,.98c1.78,.7,3.39,1.77,4.75,3.12,1.35,1.35,2.41,2.97,3.12,4.75,.65,1.64,.98,3.39,.98,5.15s-.33,3.51-.98,5.15Z"/>\
    <circle cx="22" cy="56" r="2"/>
    
    <path d="M41.9,38.8c2.8,10.15,2.19,20.94-1.74,30.7-3.93,9.77-10.96,17.97-20.02,23.35-.47,.28-.63,.9-.35,1.37,.28,.47,.9,.63,1.37,.35,9.11-5.41,16.26-13.57,20.43-23.31,4.17-9.74,5.14-20.55,2.77-30.87,8.75,4.72,14.59,13.47,15.6,23.36,1.01,9.89-2.95,19.64-10.56,26.03-.42,.35-.48,.99-.12,1.41,.36,.42,.99,.48,1.41,.12,8.43-7.08,12.63-17.99,11.13-28.89-1.51-10.9-8.51-20.27-18.54-24.79-.35-.16-.77-.1-1.06,.15-.29,.25-.42,.65-.31,1.03Z"/>
    <circle cx="52.08" cy="61.05" r="2"/>
    <circle cx="50.22" cy="72.65" r="2"/>

    <path d="M114,92h-23v-8.01c4.21-.08,8.39-.67,12.46-1.76,.53-.14,.85-.69,.71-1.22-.14-.53-.69-.85-1.22-.71-3.9,1.04-7.91,1.61-11.94,1.69v-8c6.6-.19,12.99-2.3,18.41-6.07,.45-.32,.57-.94,.25-1.39-.32-.45-.94-.57-1.39-.25-5.08,3.54-11.08,5.52-17.27,5.71v-12.03c1.47-.12,2.9-.52,4.23-1.16,1.43-.69,2.71-1.67,3.77-2.86,1.05-1.19,1.86-2.59,2.37-4.09,.47-1.4,.68-2.87,.62-4.34-.06-1.47-.39-2.92-.98-4.28-.63-1.46-1.55-2.78-2.7-3.88-1.15-1.1-2.51-1.96-3.99-2.54-1.38-.53-2.84-.8-4.31-.8s-2.94,.27-4.31,.8c-1.49,.57-2.84,1.43-3.99,2.54-1.15,1.1-2.07,2.42-2.7,3.88-.59,1.35-.92,2.8-.98,4.28-.06,1.47,.15,2.95,.62,4.34,.51,1.51,1.32,2.9,2.37,4.09,1.05,1.19,2.33,2.17,3.77,2.86,1.33,.64,2.76,1.04,4.23,1.16v12.03c-6.19-.19-12.19-2.18-17.27-5.71-.45-.32-1.08-.2-1.39,.25-.32,.45-.2,1.08,.25,1.39,5.42,3.77,11.82,5.88,18.41,6.07v8c-4.03-.08-8.04-.65-11.94-1.69-.53-.14-1.08,.17-1.22,.71-.14,.53,.17,1.08,.71,1.22,4.07,1.09,8.25,1.68,12.46,1.76v8.01h-23c-.55,0-1,.45-1,1s.45,1,1,1h48c.55,0,1-.45,1-1s-.45-1-1-1Zm-27.68-34.7c-1.27-.5-2.42-1.26-3.39-2.23s-1.72-2.12-2.23-3.39c-.46-1.17-.7-2.42-.7-3.68s.24-2.51,.7-3.68c.5-1.27,1.26-2.42,2.23-3.39,.97-.97,2.12-1.72,3.39-2.23,1.17-.46,2.42-.7,3.68-.7s2.51,.24,3.68,.7c1.27,.5,2.42,1.26,3.39,2.23,.97,.97,1.72,2.12,2.23,3.39,.46,1.17,.7,2.42,.7,3.68s-.24,2.51-.7,3.68c-.5,1.27-1.26,2.42-2.23,3.39s-2.12,1.72-3.39,2.23c-1.17,.46-2.42,.7-3.68,.7s-2.51-.24-3.68-.7Z"/>
    <circle cx="90" cy="48" r="2"/>
</svg>